Coordinates
version=1
nRows=13
nColumns=40
inDegrees=yes

Units are S.I. units (second, meters, Newtons, ...)
Angles are in degrees.

endheader
time	pelvis_tilt	pelvis_list	pelvis_rotation	pelvis_tx	pelvis_ty	pelvis_tz	hip_flexion_r	hip_adduction_r	hip_rotation_r	knee_angle_r	knee_angle_r_beta	ankle_angle_r	subtalar_angle_r	mtp_angle_r	hip_flexion_l	hip_adduction_l	hip_rotation_l	knee_angle_l	knee_angle_l_beta	ankle_angle_l	subtalar_angle_l	mtp_angle_l	lumbar_extension	lumbar_bending	lumbar_rotation	arm_flex_r	arm_add_r	arm_rot_r	elbow_flex_r	pro_sup_r	wrist_flex_r	wrist_dev_r	arm_flex_l	arm_add_l	arm_rot_l	elbow_flex_l	pro_sup_l	wrist_flex_l	wrist_dev_l
     28.87500000	     -4.83405096	     -3.51757155	      2.71647512	      1.11707007	      0.91259452	      0.41764794	      1.61573227	     -3.91614581	    -14.23836832	     35.99395877	     35.99395877	     12.02491013	    -11.15729427	    -12.82876264	     30.64602693	     -3.55254280	     -5.90071329	     26.55178318	     26.55178318	      4.41696957	    -14.82625114	      3.60322046	     -6.90509336	      4.18243410	      5.01527435	     44.85019845	    -13.78121825	     -8.17366795	     95.27015135	     44.37845319	      0.00000000	      0.00000000	    -14.22946786	     -4.80675824	      6.43829011	     21.32295278	     44.66779531	      0.00000000	      0.00000000
     28.88657143	     -4.71880792	     -3.33749996	      2.42742144	      1.11687646	      0.91472334	      0.41511416	      3.52799283	     -4.82278686	    -13.86537856	     40.31191428	     40.31191428	     10.47112178	    -12.84919288	    -12.53732972	     29.64775159	     -3.44363534	     -6.52645618	     26.34700196	     26.34700196	      5.25352448	    -14.23522769	      3.07875627	     -7.01609142	      4.06128855	      4.67186831	     43.26375152	    -13.47043265	     -7.85862244	     95.31838176	     44.36689194	      0.00000000	      0.00000000	    -12.80235235	     -4.98349365	      6.44708743	     21.87801053	     44.69944127	      0.00000000	      0.00000000
     28.89814286	     -4.77148178	     -3.19622005	      2.09119954	      1.11639509	      0.91663686	      0.41289816	      5.78574265	     -5.63280629	    -13.40968011	     44.63921650	     44.63921650	      9.02733840	    -14.50473905	    -11.76863283	     28.74621528	     -3.41699528	     -7.34605794	     25.95212545	     25.95212545	      5.97097347	    -13.38964786	      2.51128073	     -6.95612545	      3.94960906	      4.38465373	     41.45377304	    -13.32855859	     -7.55308263	     95.39366025	     44.35539529	      0.00000000	      0.00000000	    -11.45132790	     -5.27151466	      6.40707399	     22.49252297	     44.73894705	      0.00000000	      0.00000000
     28.90971429	     -4.74382507	     -3.20212711	      1.74748265	      1.11579882	      0.91856063	      0.41108178	      8.18734432	     -6.16451071	    -12.84593442	     49.25836749	     49.25836749	      9.96128886	    -14.59583643	     -4.61944797	     27.76179266	     -3.62296883	     -8.32484542	     25.52943547	     25.52943547	      6.39255099	    -12.21755952	      0.91183397	     -7.04445201	      3.98281752	      4.80577537	     38.83885098	    -13.89552626	     -7.75819032	     96.88877475	     44.39433098	      0.00000000	      0.00000000	     -9.76709634	     -5.68273491	      6.34152310	     23.59403490	     44.86481384	      0.00000000	      0.00000000
     28.92128571	     -4.62390474	     -3.05023508	      1.45288618	      1.11500859	      0.92052721	      0.40922265	     10.23318424	     -6.95555842	    -12.65288017	     53.02489904	     53.02489904	      8.81059905	    -15.48009517	     -4.41062983	     26.67541790	     -3.51996852	     -8.94384348	     25.07375660	     25.07375660	      6.97655871	    -11.59890309	      0.57960800	     -7.20355194	      3.85069612	      4.30062820	     37.02384182	    -13.42728793	     -7.31106340	     96.35857552	     44.39466372	      0.00000000	      0.00000000	     -8.15770930	     -6.07823544	      6.28680536	     24.21418765	     44.90791710	      0.00000000	      0.00000000
     28.93285714	     -4.66120602	     -2.90608766	      1.10381799	      1.11407039	      0.92213235	      0.40765653	     12.52162995	     -7.64386991	    -12.32506809	     56.59249174	     56.59249174	      8.06163912	    -16.19370573	     -3.79856077	     25.70160074	     -3.47280288	     -9.78305144	     24.49636433	     24.49636433	      7.54058977	    -10.65963964	      0.10718209	     -7.15084137	      3.68316108	      3.91630394	     34.99191145	    -13.30434452	     -6.89058616	     95.75642104	     44.39977493	      0.00000000	      0.00000000	     -6.70415105	     -6.56201877	      6.14673793	     24.96326785	     44.96308806	      0.00000000	      0.00000000
     28.94442857	     -4.57018096	     -2.81412051	      0.81490379	      1.11302078	      0.92380452	      0.40626490	     14.60354859	     -8.24121164	    -12.11078343	     59.74280587	     59.74280587	      7.53284488	    -16.63755412	     -3.21739960	     24.68632151	     -3.46126713	    -10.47872991	     24.05217309	     24.05217309	      7.99530086	     -9.85219503	     -0.31216349	     -7.26477792	      3.55053096	      3.52186100	     32.86638402	    -13.06833547	     -6.42730098	     95.11666109	     44.40276435	      0.00000000	      0.00000000	     -5.02625640	     -7.12496850	      5.97748414	     25.79499151	     45.02465802	      0.00000000	      0.00000000
     28.95600000	     -4.50377342	     -2.81474810	      0.49232797	      1.11189905	      0.92525603	      0.40514238	     16.87346344	     -8.64814886	    -11.79877370	     62.91925353	     62.91925353	      9.11956030	    -15.93758419	      2.85378281	     23.67789923	     -3.63838477	    -11.48883788	     23.56368744	     23.56368744	      8.27958530	     -8.55208974	     -1.80051283	     -7.42258623	      3.52156553	      3.42073270	     30.48022403	    -13.39027030	     -6.03279550	     94.80680544	     44.46613167	      0.00000000	      0.00000000	     -3.53377127	     -7.68889169	      4.97897190	     27.58270256	     45.26821602	      0.00000000	      0.00000000
     28.96757143	     -4.46180986	     -2.72699496	      0.22142968	      1.11065450	      0.92658746	      0.40398963	     18.91766261	     -9.16362294	    -11.63047723	     65.22646707	     65.22646707	      8.74927676	    -16.14116116	      2.72593414	     22.74267904	     -3.55999432	    -11.98697292	     23.10092188	     23.10092188	      8.70696807	     -8.01657237	     -2.03498389	     -7.51564609	      3.39272185	      2.94295518	     28.25754703	    -13.21251310	     -5.61283288	     93.80386775	     44.48369881	      0.00000000	      0.00000000	     -1.79524310	     -8.33655494	      4.79253931	     28.24032074	     45.33062315	      0.00000000	      0.00000000
     28.97914286	     -4.38937782	     -2.65798661	     -0.02502950	      1.10941276	      0.92780494	      0.40293599	     20.85378081	     -9.60761547	    -11.46448332	     67.08155774	     67.08155774	      8.51288057	    -16.22721871	      2.60174823	     21.80110794	     -3.50089196	    -12.47017299	     22.67495957	     22.67495957	      9.14677676	     -7.43266602	     -2.33473120	     -7.61037374	      3.28021931	      2.57457447	     25.92834117	    -13.18166444	     -5.21970212	     92.64675681	     44.50621212	      0.00000000	      0.00000000	      0.03159904	     -9.01977290	      4.56914073	     28.95158895	     45.39866807	      0.00000000	      0.00000000
     28.99071429	     -4.30505978	     -2.60459432	     -0.24493283	      1.10815810	      0.92889898	      0.40201287	     22.68951941	     -9.99381717	    -11.32231012	     68.46713695	     68.46713695	      8.35938112	    -16.21889532	      2.46070455	     20.87814065	     -3.45203952	    -12.90256108	     22.28536453	     22.28536453	      9.58634104	     -6.85594615	     -2.66622228	     -7.70341182	      3.15192575	      2.27032432	     23.51009087	    -13.22003816	     -4.85868911	     91.31727043	     44.53479879	      0.00000000	      0.00000000	      1.94553490	     -9.73985171	      4.32584100	     29.65074681	     45.46985543	      0.00000000	      0.00000000
     29.00228571	     -4.12067447	     -2.68807553	     -0.36282794	      1.10683331	      0.93003469	      0.40111361	     24.25459512	    -10.22846528	    -11.34116799	     69.29222420	     69.29222420	      8.16726149	    -16.15783601	      2.35009072	     19.97417029	     -3.51103202	    -13.08933787	     22.09049125	     22.09049125	      9.99844214	     -6.58626322	     -2.88921864	     -7.99310795	      3.21795981	      1.60260282	     21.29889000	    -12.94793115	     -4.48760949	     90.26836426	     44.55070625	      0.00000000	      0.00000000	      3.87641487	    -10.60355844	      4.13684198	     30.26665490	     45.52957828	      0.00000000	      0.00000000
     29.01385714	     -4.06179753	     -2.55687888	     -0.61602673	      1.10548928	      0.93088621	      0.40030528	     25.97038100	    -10.59703364	    -11.08198922	     69.76347959	     69.76347959	      7.99185389	    -15.98773388	      2.13314599	     19.04480752	     -3.38577787	    -13.69475210	     21.62237664	     21.62237664	     10.37279393	     -5.85357719	     -3.33222539	     -8.07204363	      3.01323465	      1.75738023	     18.69375502	    -13.52655283	     -4.39319550	     87.97237796	     44.62163615	      0.00000000	      0.00000000	      6.08053139	    -11.14814107	      3.87062964	     30.79854848	     45.60926844	      0.00000000	      0.00000000
